<svg xmlns="http://www.w3.org/2000/svg" width="109.625" height="17.281" viewBox="0 0 109.625 17.281">
  <path d="M6.015 17.034V1.914h3.84V.234H.015v1.68h3.84v15.12h2.16zm14.035 0v-1.68h-6v-6.24h5.28v-1.68h-5.28v-5.52h6V.234h-8.156v16.8h8.16zm3.915 0l3-7.2 3 7.2h2.16l-3.6-8.64 3.24-8.16h-2.16l-2.64 6.72-2.64-6.72h-2.16l3.24 8.16-3.6 8.64h2.16zm12.412 0v-7.68h5.04v7.68h2.16V.234h-2.16v7.44h-5.04V.234h-2.16v16.8h2.16zm15 .24a4.864 4.864 0 0 0 2.832-.78 4.925 4.925 0 0 0 1.728-2.688 17.844 17.844 0 0 0 .6-5.172 17.845 17.845 0 0 0-.6-5.172A4.926 4.926 0 0 0 54.209.774a5.531 5.531 0 0 0-5.664 0 4.926 4.926 0 0 0-1.728 2.688 17.845 17.845 0 0 0-.6 5.172 17.844 17.844 0 0 0 .6 5.172 4.925 4.925 0 0 0 1.728 2.688 4.864 4.864 0 0 0 2.832.78zm0-1.44q-3 0-3-7.2t3-7.2q3 0 3 7.2t-3 7.2zm9.511 1.2l.72-12.48h.12l3.48 10.32h2.16l3.48-10.32h.12l.72 12.48h2.16l-.96-16.8h-2.64l-3.912 11.52h-.1L62.324.234h-2.64l-.96 16.8h2.16zm17.11 0l1.08-4.32h4.8l1.08 4.32h2.16l-4.08-16.8h-3.12l-4.08 16.8h2.16zm3.432-14.4h.1l1.992 8.4h-4.08zm7.826 14.4h2.16v-5.16q.48.1 1.176.168a12.07 12.07 0 0 0 1.224.072 5.257 5.257 0 0 0 2.6-.564 3.382 3.382 0 0 0 1.476-1.9 11.154 11.154 0 0 0 .48-3.66 10.036 10.036 0 0 0-.516-3.6A3.321 3.321 0 0 0 96.2.542a7.234 7.234 0 0 0-3.108-.552 13.527 13.527 0 0 0-3.84.48v16.56zm2.16-6.6v-8.88h1.68a3.532 3.532 0 0 1 1.8.4 2.37 2.37 0 0 1 1 1.356 8.758 8.758 0 0 1 .324 2.688 8.756 8.756 0 0 1-.324 2.688 2.369 2.369 0 0 1-1 1.356 3.532 3.532 0 0 1-1.8.4h-1.68zm14.373 6.6V1.914h3.84V.234h-9.835v1.68h3.84v15.12h2.16z" fill="#ffffff" fill-rule="evenodd"/>
</svg>
