<svg xmlns="http://www.w3.org/2000/svg" width="137" height="22" viewBox="0 0 137 22"><path d="M7.495 21.3V2.4h4.8V.3h-12.3v2.1h4.8v18.9h2.7zm17.4 0v-2.1h-7.5v-7.8h6.6V9.3h-6.6V2.4h7.5V.3h-10.2v21h10.2zm4.35 0l3.75-9 3.75 9h2.7l-4.5-10.8L38.995.3h-2.7l-3.3 8.4-3.3-8.4h-2.7l4.05 10.2-4.5 10.8h2.7zm15.449 0v-9.6h6.3v9.6h2.7V.3h-2.7v9.3h-6.3V.3h-2.7v21h2.7zm19.05.3a6.082 6.082 0 0 0 3.54-.98 6.157 6.157 0 0 0 2.16-3.36 28.239 28.239 0 0 0 0-12.93 6.157 6.157 0 0 0-2.16-3.36 6.945 6.945 0 0 0-7.08 0 6.157 6.157 0 0 0-2.16 3.36 28.239 28.239 0 0 0 0 12.93 6.157 6.157 0 0 0 2.16 3.36 6.082 6.082 0 0 0 3.54.98zm0-1.8q-3.75 0-3.75-9t3.75-9q3.75 0 3.75 9t-3.75 9zm12.3 1.5l.9-15.6h.15l4.35 12.9h2.7l4.35-12.9h.15l.9 15.6h2.7l-1.2-21h-3.3l-4.89 14.4h-.12L77.844.3h-3.3l-1.2 21h2.7zm21.15 0l1.35-5.4h6l1.35 5.4h2.7l-5.1-21h-3.9l-5.1 21h2.7zm4.29-18h.12l2.49 10.5h-5.1zm9.81 18h2.7v-6.45q.6.12 1.47.21a15.088 15.088 0 0 0 1.53.09 6.571 6.571 0 0 0 3.255-.71 4.229 4.229 0 0 0 1.845-2.37 13.91 13.91 0 0 0 .6-4.57 12.545 12.545 0 0 0-.645-4.5 4.151 4.151 0 0 0-2.07-2.31 9.041 9.041 0 0 0-3.885-.69 16.9 16.9 0 0 0-4.8.6v20.7zm2.7-8.25V1.95h2.1a4.418 4.418 0 0 1 2.25.49 2.974 2.974 0 0 1 1.245 1.7 14.14 14.14 0 0 1 0 6.72 2.949 2.949 0 0 1-1.245 1.69 4.413 4.413 0 0 1-2.25.5h-2.1zm17.7 8.25V2.4h4.8V.3h-12.3v2.1h4.8v18.9h2.7z" fill="#fff" fill-rule="evenodd"/></svg>
